<?xml version="1.0" encoding="UTF-8"?>
<svg id="Layer_1" data-name="Layer 1" xmlns="http://www.w3.org/2000/svg" viewBox="0 0 621.89 622.11">
  <defs>
    <style>
      .cls-1 {
        fill: #282828;
      }

      .cls-1, .cls-2, .cls-3, .cls-4 {
        stroke-width: 0px;
      }

      .cls-2 {
        fill: #ed3331;
      }

      .cls-5 {
        isolation: isolate;
      }

      .cls-3 {
        fill: #fff;
      }

      .cls-4 {
        fill: #efefef;
      }
    </style>
  </defs>
  <rect class="cls-1" x="10.97" width="497.81" height="602.82" rx="33.48" ry="33.48"/>
  <g>
    <g>
      <rect class="cls-3" x="169" y="486.91" width="68.15" height="68.15" rx="34.07" ry="34.07" transform="translate(-318.12 723.51) rotate(-89.94)"/>
      <path class="cls-2" d="M576,.22H173.87l-.48,439.47,59.73,43.13c21.73,15.69,26.63,46.03,10.94,67.76h0c-15.69,21.73-46.03,26.63-67.76,10.94l-70.65-51.01c-4.38-3.16-8.03-6.93-11.01-11.09-11.18-8.9-18.36-22.63-18.34-38.04L76.8.22h-30.91C20.54.22,0,20.76,0,46.11v530.11c0,25.34,20.54,45.89,45.89,45.89h530.11c25.34,0,45.89-20.54,45.89-45.89V46.11c0-25.34-20.54-45.89-45.89-45.89Z"/>
    </g>
    <g class="cls-5">
      <path class="cls-4" d="M572.41,353.03h-104.5l-56.21-66.77h-119.97v66.77h-78.09v-129.02h219.56c24.14,0,43.01-10.94,43.01-28.29,0-19.62-16.22-29.43-43.01-29.43h-219.56l50.93-65.64h162.22c57.34,0,129.78,18.11,129.78,90.17,0,39.23-24.52,71.68-66.02,79.98,8.68,6.41,18.11,15.47,35.46,33.2l46.4,49.04Z"/>
    </g>
  </g>
</svg>