<?xml version="1.0" encoding="UTF-8"?>
<svg id="Layer_1" data-name="Layer 1" xmlns="http://www.w3.org/2000/svg" viewBox="0 0 621.88 622.1">
  <defs>
    <style>
      .cls-1 {
        fill: #282828;
      }

      .cls-1, .cls-2, .cls-3 {
        stroke-width: 0px;
      }

      .cls-2 {
        fill: #ed3331;
      }

      .cls-3 {
        fill: #fff;
      }

      .cls-4 {
        fill: #efefef;
        font-family: EthnocentricRg-Regular, Ethnocentric;
        font-size: 377.26px;
      }
    </style>
  </defs>
  <rect class="cls-1" x="10.97" width="497.81" height="602.82" rx="33.48" ry="33.48"/>
  <g>
    <g>
      <rect class="cls-3" x="169.01" y="486.92" width="68.15" height="68.15" rx="34.07" ry="34.07" transform="translate(-318.13 723.52) rotate(-89.94)"/>
      <path class="cls-2" d="M576,.22H173.87l-.48,439.47,59.73,43.13c21.73,15.69,26.63,46.03,10.94,67.76h0c-15.69,21.73-46.03,26.63-67.76,10.94l-70.65-51.01c-4.38-3.16-8.03-6.93-11.01-11.09-11.18-8.9-18.36-22.63-18.34-38.04L76.8.22h-30.91C20.54.22,0,20.76,0,46.11v530.11c0,25.34,20.54,45.89,45.89,45.89h530.11c25.34,0,45.89-20.54,45.89-45.89V46.11c0-25.34-20.54-45.89-45.89-45.89Z"/>
    </g>
    <text class="cls-4" transform="translate(190.62 353.03)"><tspan x="0" y="0">R</tspan></text>
  </g>
</svg>