<?xml version="1.0" encoding="UTF-8"?>
<svg id="Layer_1" data-name="Layer 1" xmlns="http://www.w3.org/2000/svg" viewBox="0 0 43.94 44">
  <defs>
    <style>
      .cls-1 {
        fill-rule: evenodd;
      }

      .cls-1, .cls-2 {
        fill: #2b2b2b;
        stroke-width: 0px;
      }
    </style>
  </defs>
  <g id="style_fill" data-name="style=fill">
    <g id="call">
      <path id="vector" class="cls-2" d="M42.41,34.96c0,.74-.16,1.49-.51,2.23-.19.41-.42.8-.68,1.19-.09.13-.19.27-.29.4-.13.17-.27.34-.42.51-.39.43-.79.81-1.21,1.15-.67.53-1.38.96-2.14,1.27-1.23.51-2.56.78-3.99.78-2.09,0-4.32-.49-6.67-1.49-2.35-1-4.71-2.35-7.04-4.05-2.35-1.72-4.58-3.62-6.71-5.73-2.11-2.13-4.01-4.36-5.71-6.69-1.68-2.33-3.03-4.67-4.01-6.98-.98-2.33-1.47-4.56-1.47-6.69,0-1.39.25-2.72.74-3.95.49-1.25,1.27-2.39,2.35-3.42,1.31-1.29,2.74-1.92,4.26-1.92.57,0,1.15.12,1.66.37.53.25,1,.61,1.37,1.15l4.75,6.69c.37.51.63.98.82,1.43.18.43.29.86.29,1.25,0,.49-.14.98-.43,1.45-.27.47-.65.96-1.15,1.45l-1.56,1.62c-.23.23-.33.49-.33.82,0,.16.02.31.06.47.06.16.12.29.16.41.37.68,1,1.56,1.9,2.62.92,1.06,1.9,2.15,2.97,3.23,1.11,1.08,2.17,2.09,3.25,3.01,1.06.9,1.94,1.51,2.64,1.88.1.04.23.1.37.16.16.06.33.08.51.08.35,0,.61-.12.84-.35l1.56-1.53c.51-.51,1-.9,1.47-1.15.47-.29.94-.43,1.45-.43.39,0,.8.08,1.25.27s.92.45,1.43.8l6.77,4.81c.53.37.9.8,1.13,1.31.2.51.33,1.02.33,1.6Z"/>
      <path id="vector_Stroke_" data-name="vector (Stroke)" class="cls-1" d="M3.56,2.35C5.1.84,6.9,0,8.88,0c.78,0,1.58.17,2.31.51.75.35,1.44.89,1.97,1.65l4.74,6.68c.42.58.75,1.15.99,1.73.24.57.41,1.2.41,1.84,0,.79-.23,1.55-.64,2.23-.35.61-.82,1.2-1.37,1.75l-1.41,1.47s.03.08.05.13c.31.54.85,1.29,1.67,2.27.9,1.04,1.86,2.1,2.89,3.15,1.09,1.07,2.12,2.04,3.16,2.92.98.83,1.75,1.36,2.31,1.67.05.02.09.04.12.05l1.41-1.39c.56-.56,1.16-1.05,1.8-1.39.67-.4,1.4-.63,2.21-.63.61,0,1.22.13,1.83.38.58.24,1.15.56,1.71.95h.01s6.78,4.82,6.78,4.82c.73.5,1.29,1.14,1.65,1.95v.02s.02.02.02.02c.26.65.44,1.36.44,2.17,0,.97-.22,1.95-.66,2.89-.23.48-.49.95-.8,1.4-.11.16-.22.31-.34.47-.16.2-.32.4-.5.6-.44.48-.9.92-1.39,1.31-.78.62-1.61,1.12-2.52,1.49-1.42.59-2.95.89-4.58.89-2.33,0-4.77-.55-7.27-1.62-2.47-1.05-4.93-2.46-7.34-4.22h0c-2.42-1.77-4.71-3.72-6.89-5.88h-.01c-2.16-2.19-4.11-4.48-5.86-6.88h0c-1.73-2.42-3.14-4.85-4.18-7.28h0c-1.05-2.49-1.59-4.92-1.59-7.29,0-1.57.28-3.1.84-4.52.58-1.47,1.48-2.79,2.72-3.96Z"/>
    </g>
  </g>
</svg>