<?xml version="1.0" encoding="UTF-8"?>
<svg id="Layer_1" data-name="Layer 1" xmlns="http://www.w3.org/2000/svg" viewBox="0 0 807.2 783.79">
  <defs>
    <style>
      .cls-1 {
        fill: #161616;
        stroke: #b2b2b2;
        stroke-miterlimit: 10;
        stroke-width: 1.5px;
      }
    </style>
  </defs>
  <path class="cls-1" d="M312.3,753.55s13.06,2.33,8.21-25.16c-7.07-40-18.05-70.89-33.35-116.17-3.72-11.02-15.26-77.65,17.64-86.94,0,0-44.37,21.73-45.97,23.02-1.61,1.29,28.62,190.84,28.62,190.84l24.85,14.41Z"/>
  <path class="cls-1" d="M768.83,385.68s-.5,13.26-26.32,2.67c-37.58-15.41-65.43-32.71-106.42-57.29-9.98-5.98-64.22-33.68-86.43-4.53,0,0,30.96-35.54,32.57-36.84,1.61-1.29,177.82,68.63,177.82,68.63l8.79,27.35Z"/>
  <path class="cls-1" d="M77.41,305.09S180.95,171,385.53,57.88l24.09,114.61-241.72,194.78-90.5-62.17Z"/>
  <path class="cls-1" d="M242.16,778.28l23.49,4.36s16.13-4.5,26.26-10.01c10.13-5.51,27.64-18.3,27.64-18.3,0,0-.19-8.46-11.84-46.75-11.65-38.29-31.58-95.08-31.31-131.72,0,0,.23-36.87,18.13-42.42,14.04-4.36,40.97-16.13,63.13-48.22l139.85-112.03s33.39-8.69,54.2-45.33c8.9-15.66,38.28-25.22,80.15-5.32,41.87,19.9,96.25,49.59,106.26,55.43,10.01,5.84,29.28,14.15,29.28,14.15l28.87-33.2,8.51-31.36-123.22-115.93-100.39-58.84-175.59,14.67-234.89,189.28,21.94,145.57,50.49,205.66-.96,70.31Z"/>
  <path class="cls-1" d="M.75,397.33c-.2-1.14,63.01-81.24,76.66-92.24,0,0,15.89-14.79,38.02,1.15,22.12,15.95,58.47,46.26,58.47,46.26,0,0,33.11,26.3,34.74,55.44,1.63,29.15-3.9,104.46,22.83,193.52,26.73,89.06,50.04,145.1,50.04,145.1,0,0,4.64,14.8-.15,25.29-4.79,10.49-25.72,14.1-42.01,8.68-16.29-5.42-60.02-28.46-89.55-67.57C120.27,673.86,22.12,519.18.75,397.33Z"/>
  <path class="cls-1" d="M10.05,385.86l-8.26-11.89s6.51-26.44,26.64-49.94c20.13-23.51,41.68-32.92,41.68-32.92l12.8,10.54L10.05,385.86Z"/>
  <rect class="cls-1" x="104.79" y="316.84" width="19.01" height="35.2" rx="2.98" ry="2.98" transform="translate(-224.17 232.66) rotate(-54.4)"/>
  <path class="cls-1" d="M117.14,402.88l-12.95-19.36c-4.25-5.27-9.68-5.44-15.15-2.36l-17.27,13.91c-5.32,4.29-7.13,11.7-2.84,16.2l17.38,19.11,20.95,2.99s6.37,2.15,8.43-6.79c2.06-8.95,1.45-23.68,1.45-23.68Z"/>
  <path class="cls-1" d="M124.32,475.8l12.95,19.36c4.25,5.27,9.68,5.44,15.15,2.36l17.27-13.91c5.32-4.29,7.13-11.7,2.84-16.2l-17.38-19.11-20.95-2.99s-6.37-2.15-8.43,6.79c-2.06,8.95-1.45,23.68-1.45,23.68Z"/>
  <path class="cls-1" d="M156.59,433.69l19.36-12.95c5.27-4.25,5.44-9.68,2.36-15.15l-13.91-17.27c-4.29-5.32-11.7-7.13-16.2-2.84l-19.11,17.38-2.99,20.95s-2.15,6.37,6.79,8.43c8.95,2.06,23.68,1.45,23.68,1.45Z"/>
  <path class="cls-1" d="M83.66,440.87l-19.36,12.95c-5.27,4.25-5.44,9.68-2.36,15.15l13.91,17.27c4.29,5.32,11.7,7.13,16.2,2.84l19.11-17.38,2.99-20.95s2.15-6.37-6.79-8.43c-8.95-2.06-23.68-1.45-23.68-1.45Z"/>
  <g>
    <circle class="cls-1" cx="317.98" cy="342.7" r="4.9"/>
    <circle class="cls-1" cx="329.22" cy="333.64" r="4.9"/>
    <circle class="cls-1" cx="340.46" cy="324.58" r="4.9"/>
    <circle class="cls-1" cx="351.7" cy="315.52" r="4.9"/>
    <circle class="cls-1" cx="362.95" cy="306.46" r="4.9"/>
    <circle class="cls-1" cx="333.71" cy="349.89" r="4.9"/>
    <circle class="cls-1" cx="344.95" cy="340.83" r="4.9"/>
    <circle class="cls-1" cx="356.19" cy="331.77" r="4.9"/>
    <circle class="cls-1" cx="367.43" cy="322.71" r="4.9"/>
  </g>
  <path class="cls-1" d="M418.8,397.54l-20.48,16.5c-2.22,1.79-5.46,1.44-7.25-.78h0c-1.79-2.22-1.44-5.46.78-7.25l20.48-16.5c2.22-1.79,5.46-1.44,7.25.78h0c1.79,2.22,1.44,5.46-.78,7.25Z"/>
  <path class="cls-1" d="M474.81,11.35l-9.86-10.6s-27.22.74-54.47,15.41c-27.25,14.67-41.03,33.73-41.03,33.73l7.58,14.75,97.78-53.3Z"/>
  <path class="cls-1" d="M482.47,9.16c-1.07-.44-92.78,44.3-106.43,55.3,0,0-17.83,12.38-6.95,37.39,10.88,25.01,32.77,66.97,32.77,66.97,0,0,18.66,37.95,46.79,45.74,28.13,7.79,102.9,18.4,184.24,63.45,81.34,45.05,131.15,79.75,131.15,79.75,0,0,13.48,7.68,24.74,5.23,11.27-2.46,19.25-22.13,17.42-39.2-1.83-17.07-15.05-64.7-46.99-101.87-31.94-37.17-162.21-165.97-276.74-212.76Z"/>
  <path class="cls-1" d="M325.91,305.51l75.77-61.06s20.66-16.65,12.34-37.76-52.46-107.4-52.46-107.4c0,0-4.52-12.25-18.05-6.65-13.53,5.6-152.45,99.01-231.57,186.6-9.82,10.87,2.65,19.05,2.65,19.05,0,0,74.93,61.47,93.79,74.09,18.86,12.62,39.52-4.03,39.52-4.03l75.77-61.06,2.23-1.8Z"/>
  <rect class="cls-1" x="389.87" y="87.12" width="19.01" height="35.2" rx="2.98" ry="2.98" transform="translate(807.57 42.73) rotate(156.67)"/>
  <circle class="cls-1" cx="454.14" cy="167.74" r="26.3"/>
  <circle class="cls-1" cx="544.08" cy="95.27" r="26.3"/>
  <circle class="cls-1" cx="463.04" cy="88.39" r="26.3"/>
  <circle class="cls-1" cx="534.87" cy="177.52" r="26.3"/>
</svg>