<?xml version="1.0" encoding="UTF-8"?>
<svg id="Layer_1" data-name="Layer 1" xmlns="http://www.w3.org/2000/svg" viewBox="0 0 514.55 523.18">
  <defs>
    <style>
      .cls-1 {
        fill: #282828;
        stroke: #b2b2b2;
        stroke-miterlimit: 10;
        stroke-width: 1.5px;
      }
    </style>
  </defs>
  <path class="cls-1" d="M21.27,211.48s-1.2,8.54,16.53,4.74c25.81-5.53,45.61-13.39,74.66-24.4,7.07-2.68,50.07-11.74,56.88,9.41,0,0-15.16-28.3-16.03-29.32-.88-1.01-123.27,23.08-123.27,23.08l-8.77,16.48Z"/>
  <path class="cls-1" d="M270.95,499.31s-8.62-.01-2.35-17.03c9.12-24.77,19.7-43.26,34.7-70.47,3.65-6.62,20.36-42.5.9-56.24,0,0,23.81,19.27,24.69,20.28.88,1.01-40.38,117.1-40.38,117.1l-17.56,6.36Z"/>
  <path class="cls-1" d="M307,48.37s89.53,64.08,167.81,194.29l-73.87,18.35-132.19-152.4,38.25-60.24Z"/>
  <path class="cls-1" d="M3.56,166.51l-2.28,15.36s3.3,10.37,7.12,16.82c3.82,6.45,12.53,17.52,12.53,17.52,0,0,5.49-.32,30.08-8.79,24.59-8.47,61.01-22.75,84.81-23.44,0,0,23.95-.72,27.98,10.78,3.16,9.01,11.44,26.23,32.8,39.86l76.05,88.19s6.43,21.48,30.72,34.13c10.38,5.41,17.28,24.27,5.34,51.93-11.94,27.66-29.94,63.68-33.5,70.32-3.56,6.64-8.5,19.35-8.5,19.35l22.24,17.97,20.57,4.79,72.39-82.76,35.85-66.59-13.67-113.69-128.46-148.09-94.02,17.68-132.38,37.64-45.69,1.03Z"/>
  <path class="cls-1" d="M245.28.75c.73-.16,54.25,39.01,61.71,47.62,0,0,9.98,9.97.15,24.72-9.84,14.74-28.67,39.06-28.67,39.06,0,0-16.3,22.12-35.19,23.87-18.89,1.75-67.94-.07-125.15,19.39-57.21,19.46-93.06,35.92-93.06,35.92,0,0-9.5,3.36-16.43.5-6.92-2.87-9.77-16.37-6.63-27.08,3.14-10.71,17.07-39.65,41.78-59.75C68.5,84.89,166.65,17.5,245.28.75Z"/>
  <path class="cls-1" d="M252.95,6.52l7.53-5.64s17.32,3.61,33.06,16.13c15.74,12.52,22.36,26.29,22.36,26.29l-6.55,8.56L252.95,6.52Z"/>
  <rect class="cls-1" x="282.62" y="61.57" width="12.36" height="22.88" rx="2.63" ry="2.63" transform="translate(88.37 -147.37) rotate(33.53)"/>
  <path class="cls-1" d="M244.42,76.47l12.27-8.87c3.33-2.88,3.31-6.42,1.18-9.89l-9.44-10.89c-2.91-3.35-7.77-4.35-10.59-1.46l-12,11.74-1.45,13.68s-1.25,4.19,4.61,5.32c5.86,1.13,15.41.38,15.41.38Z"/>
  <path class="cls-1" d="M197.23,82.85l-12.27,8.87c-3.33,2.88-3.31,6.42-1.18,9.89l9.44,10.89c2.91,3.35,7.77,4.35,10.59,1.46l12-11.74,1.45-13.68s1.25-4.19-4.61-5.32c-5.86-1.13-15.41-.38-15.41-.38Z"/>
  <path class="cls-1" d="M225.34,102.82l8.87,12.27c2.88,3.33,6.42,3.31,9.89,1.18l10.89-9.44c3.35-2.91,4.35-7.77,1.46-10.59l-11.74-12-13.68-1.45s-4.19-1.25-5.32,4.61c-1.13,5.86-.38,15.41-.38,15.41Z"/>
  <path class="cls-1" d="M218.96,55.63l-8.87-12.27c-2.88-3.33-6.42-3.31-9.89-1.18l-10.89,9.44c-3.35,2.91-4.35,7.77-1.46,10.59l11.74,12,13.68,1.45s4.19,1.25,5.32-4.61c1.13-5.86.38-15.41.38-15.41Z"/>
  <g>
    <circle class="cls-1" cx="288.24" cy="205.49" r="3.18"/>
    <circle class="cls-1" cx="294.39" cy="212.58" r="3.18"/>
    <circle class="cls-1" cx="300.54" cy="219.67" r="3.18"/>
    <circle class="cls-1" cx="306.69" cy="226.75" r="3.18"/>
    <circle class="cls-1" cx="312.83" cy="233.84" r="3.18"/>
    <circle class="cls-1" cx="283.94" cy="215.87" r="3.18"/>
    <circle class="cls-1" cx="290.09" cy="222.96" r="3.18"/>
    <circle class="cls-1" cx="296.24" cy="230.05" r="3.18"/>
    <circle class="cls-1" cx="302.39" cy="237.14" r="3.18"/>
  </g>
  <path class="cls-1" d="M254.99,272.26l-11.2-12.91c-1.21-1.4-1.06-3.51.34-4.73h0c1.4-1.21,3.51-1.06,4.73.34l11.2,12.91c1.21,1.4,1.06,3.51-.34,4.73h0c-1.4,1.21-3.51,1.06-4.73-.34Z"/>
  <path class="cls-1" d="M507.13,299.54l6.65-6.65s-1.12-17.66-11.29-35.01c-10.17-17.35-22.87-25.85-22.87-25.85l-9.4,5.27,36.92,62.25Z"/>
  <path class="cls-1" d="M508.74,304.46c.26-.7-30.96-59.21-38.42-67.82,0,0-8.46-11.29-24.45-3.64-15.98,7.66-42.72,22.86-42.72,22.86,0,0-24.2,13.01-28.6,31.47-4.4,18.46-9.53,67.27-36.87,121.15-27.34,53.89-48.7,87.05-48.7,87.05,0,0-4.67,8.93-2.81,16.19,1.86,7.26,14.83,11.98,25.87,10.39,11.04-1.59,41.66-11.3,65.05-32.92,23.39-21.62,103.97-109.26,131.66-184.74Z"/>
  <path class="cls-1" d="M312.58,209.77l41.44,47.77s11.3,13.03,24.81,7.13c13.51-5.9,68.51-36.6,68.51-36.6,0,0,7.85-3.23,3.89-11.88-3.96-8.65-67.89-96.68-126.64-146-7.29-6.12-12.31,2.17-12.31,2.17,0,0-38.16,50.11-45.91,62.66-7.75,12.54,3.55,25.57,3.55,25.57l41.44,47.77,1.22,1.41Z"/>
  <rect class="cls-1" x="438.53" y="241.31" width="12.36" height="22.88" rx="2.63" ry="2.63" transform="translate(407.2 762.89) rotate(-115.41)"/>
  <circle class="cls-1" cx="405.07" cy="289.8" r="17.09"/>
  <circle class="cls-1" cx="454.26" cy="346.51" r="17.09"/>
  <circle class="cls-1" cx="456.82" cy="293.71" r="17.09"/>
  <circle class="cls-1" cx="400.62" cy="342.46" r="17.09"/>
</svg>