<?xml version="1.0" encoding="UTF-8"?>
<svg id="Layer_1" data-name="Layer 1" xmlns="http://www.w3.org/2000/svg" viewBox="0 0 79.1 78.95">
  <defs>
    <style>
      .cls-1 {
        fill: #2b2b2b;
        stroke-width: 0px;
      }
    </style>
  </defs>
  <path class="cls-1" d="M29.99,78.07v-26.35h-8.15v-12.11h8.15v-5.22c0-13.49,6.09-19.74,19.31-19.74,1.32,0,3.15.14,4.84.34,1.27.13,2.52.35,3.76.64v10.98c-.72-.07-1.43-.11-2.15-.12-.81-.02-1.61-.03-2.42-.03-2.33,0-4.15.32-5.52,1.02-.92.46-1.7,1.17-2.24,2.05-.85,1.39-1.23,3.29-1.23,5.78v4.28h12.92l-1.27,6.94-.95,5.16h-10.7v27.22c19.58-2.37,34.76-19.07,34.76-39.33C79.1,17.74,61.39,0,39.55,0S0,17.74,0,39.62c0,18.58,12.77,34.17,29.99,38.45Z"/>
</svg>