<?xml version="1.0" encoding="UTF-8"?>
<svg id="Layer_1" data-name="Layer 1" xmlns="http://www.w3.org/2000/svg" viewBox="0 0 85.14 85.14">
  <defs>
    <style>
      .cls-1 {
        fill: #2b2b2b;
        stroke-width: 0px;
      }
    </style>
  </defs>
  <path class="cls-1" d="M64.46,31.6c-.12-2.64-.57-4.08-.94-5.03-.49-1.27-1.08-2.17-2.03-3.11-.95-.95-1.85-1.53-3.12-2.02-.96-.37-2.39-.81-5.03-.92-2.86-.13-3.72-.15-10.96-.14-7.24.02-8.09.04-10.95.18-2.64.13-4.08.57-5.03.94-1.27.49-2.17,1.08-3.11,2.03-.95.95-1.53,1.85-2.02,3.12-.37.96-.81,2.39-.92,5.03-.12,2.86-.15,3.71-.14,10.95.02,7.24.04,8.1.18,10.95.12,2.64.57,4.08.94,5.03.49,1.26,1.08,2.17,2.03,3.11.95.94,1.86,1.53,3.12,2.02.96.37,2.39.81,5.04.92h0c2.86.12,3.71.15,10.95.14,7.24-.02,8.1-.04,10.96-.18,2.64-.13,4.08-.57,5.03-.94,1.27-.49,2.17-1.08,3.11-2.03.95-.95,1.53-1.85,2.02-3.12.37-.96.81-2.39.92-5.04.13-2.86.15-3.72.14-10.95-.01-7.24-.04-8.09-.18-10.95ZM42.44,56.51c-7.69.01-13.93-6.2-13.95-13.89-.01-7.69,6.21-13.93,13.89-13.95,7.69-.02,13.93,6.21,13.95,13.89.01,7.69-6.21,13.93-13.9,13.95ZM56.86,31.35c-1.8,0-3.26-1.45-3.26-3.25,0-1.8,1.45-3.25,3.25-3.26h0c1.8,0,3.26,1.45,3.26,3.25,0,1.8-1.45,3.26-3.25,3.26Z"/>
  <path class="cls-1" d="M42.4,33.55c-4.99,0-9.03,4.06-9.02,9.05h0c.01,4.99,4.06,9.03,9.05,9.02,4.99-.01,9.03-4.06,9.02-9.05,0-4.99-4.06-9.03-9.05-9.02Z"/>
  <path class="cls-1" d="M42.57,0C19.06,0,0,19.06,0,42.57s19.06,42.57,42.57,42.57,42.57-19.06,42.57-42.57S66.08,0,42.57,0ZM69.38,53.72c-.13,2.88-.58,4.86-1.25,6.58-.69,1.79-1.61,3.3-3.12,4.81-1.5,1.51-3.01,2.44-4.8,3.14-1.72.67-3.68,1.14-6.57,1.27-2.89.14-3.82.17-11.18.18-7.36.01-8.29-.02-11.17-.14-2.89-.13-4.86-.58-6.58-1.25-1.79-.69-3.3-1.61-4.81-3.12-1.51-1.5-2.44-3.01-3.14-4.8-.68-1.72-1.14-3.69-1.27-6.58-.14-2.89-.17-3.81-.19-11.18-.01-7.36.01-8.29.14-11.18.13-2.89.58-4.86,1.25-6.58.69-1.79,1.62-3.3,3.12-4.81,1.5-1.51,3.01-2.44,4.8-3.14,1.72-.68,3.69-1.14,6.58-1.27h0c2.89-.14,3.81-.17,11.18-.19,7.36-.01,8.29.02,11.18.14,2.89.12,4.86.58,6.58,1.25,1.79.69,3.3,1.61,4.81,3.12,1.51,1.5,2.44,3.01,3.13,4.8.68,1.72,1.14,3.69,1.27,6.58.14,2.89.17,3.81.18,11.18.01,7.36-.02,8.28-.14,11.18Z"/>
</svg>