<?xml version="1.0" encoding="UTF-8"?>
<svg id="Layer_1" data-name="Layer 1" xmlns="http://www.w3.org/2000/svg" viewBox="0 0 41.29 49.99">
  <defs>
    <style>
      .cls-1 {
        fill: #2b2b2b;
        stroke-width: 0px;
      }
    </style>
  </defs>
  <path class="cls-1" d="M26.48.8C11.87-3.21-1.27,8.43.1,22.69c.94,9.78,8.73,17.57,18.5,18.5,14.25,1.37,25.9-11.77,21.89-26.38-1.86-6.78-7.23-12.15-14.01-14.01ZM25.01,31.48c-9.13,3-17.45-5.32-14.45-14.45,1.06-3.22,3.62-5.78,6.84-6.84,9.13-3,17.45,5.32,14.45,14.45-1.06,3.22-3.62,5.78-6.84,6.84Z"/>
  <path class="cls-1" d="M23.23,48.68l5.23-9.05c.16-.27-.04-.62-.36-.62h-14.28c-.32,0-.51.34-.36.62l5.23,9.05c1.01,1.75,3.53,1.75,4.54,0Z"/>
</svg>