<?xml version="1.0" encoding="UTF-8"?>
<svg id="Layer_1" data-name="Layer 1" xmlns="http://www.w3.org/2000/svg" viewBox="0 0 54.53 43.62">
  <defs>
    <style>
      .cls-1 {
        fill: #323232;
        fill-rule: evenodd;
        stroke-width: 0px;
      }
    </style>
  </defs>
  <path class="cls-1" d="M10.82,0h32.89c1.2,0,2.23,0,3.08.06.9.06,1.8.2,2.69.56,2,.83,3.6,2.42,4.43,4.43.37.89.5,1.79.56,2.69.06.85.06,1.89.06,3.08v21.99c0,1.2,0,2.23-.06,3.08-.06.9-.2,1.8-.56,2.69-.83,2-2.42,3.6-4.43,4.43-.89.37-1.79.5-2.69.56-.85.06-1.89.06-3.08.06H10.82c-1.2,0-2.23,0-3.08-.06-.9-.06-1.8-.2-2.69-.56-2-.83-3.6-2.42-4.43-4.43-.37-.89-.5-1.79-.56-2.69C0,35.03,0,34,0,32.8V10.82c0-1.2,0-2.23.06-3.08.06-.9.2-1.8.56-2.69C1.45,3.04,3.04,1.45,5.05.62,5.94.25,6.84.12,7.74.06,8.59,0,9.62,0,10.82,0ZM6.32,6.21c.99-1.13,2.71-1.25,3.85-.26l15.3,13.39c1.03.9,2.56.9,3.59,0l15.3-13.39c1.13-.99,2.86-.88,3.85.26.99,1.13.88,2.86-.26,3.85l-15.3,13.39c-3.08,2.7-7.69,2.7-10.77,0L6.57,10.06c-1.13-.99-1.25-2.71-.26-3.85Z"/>
</svg>