<?xml version="1.0" encoding="UTF-8"?>
<svg id="Layer_1" data-name="Layer 1" xmlns="http://www.w3.org/2000/svg" viewBox="0 0 49.95 61.03">
  <defs>
    <style>
      .cls-1 {
        fill: #e2e2e2;
        stroke-width: 0px;
      }
    </style>
  </defs>
  <path class="cls-1" d="M32.04.97C14.36-3.88-1.54,10.2.12,27.45c1.14,11.83,10.56,21.25,22.39,22.39,17.25,1.66,31.33-14.24,26.48-31.92-2.25-8.2-8.74-14.7-16.95-16.95ZM30.26,38.09c-11.04,3.63-21.11-6.44-17.48-17.48,1.28-3.89,4.38-6.99,8.27-8.27,11.04-3.63,21.11,6.44,17.48,17.48-1.28,3.89-4.38,6.99-8.27,8.27Z"/>
  <path class="cls-1" d="M27.63,59.72l6.87-11.91c.16-.27-.04-.62-.36-.62h-17.58c-.32,0-.51.34-.36.62l6.87,11.91c1.01,1.75,3.53,1.75,4.54,0Z"/>
</svg>