<?xml version="1.0" encoding="UTF-8"?>
<svg id="Layer_1" data-name="Layer 1" xmlns="http://www.w3.org/2000/svg" viewBox="0 0 1381.39 914.94">
  <defs>
    <style>
      .cls-1 {
        stroke: #3c3c3e;
      }

      .cls-1, .cls-2, .cls-3, .cls-4, .cls-5, .cls-6 {
        fill: #303030;
      }

      .cls-1, .cls-2, .cls-3, .cls-4, .cls-6 {
        stroke-miterlimit: 10;
      }

      .cls-1, .cls-4 {
        stroke-width: 12px;
      }

      .cls-2 {
        stroke: #fff;
        stroke-width: 4px;
      }

      .cls-3 {
        stroke-width: 7px;
      }

      .cls-3, .cls-4, .cls-6 {
        stroke: #d8d8d8;
      }

      .cls-5 {
        stroke-width: 0px;
      }

      .cls-6 {
        stroke-width: 8px;
      }
    </style>
  </defs>
  <path class="cls-1" d="M183.17,905.4s15.25,17.49,38.76-25.29c34.22-62.27,53.11-116.42,81.9-194.92,7.01-19.11,64.32-122.58,119.37-99.18,0,0-84.3-19.03-87.91-19.02-3.61,0-170.21,291.53-170.21,291.53l18.09,46.89Z"/>
  <path class="cls-5" d="M1208.81,904.44s-15.22,17.52-38.81-25.22c-34.34-62.21-53.33-116.32-82.27-194.77-7.04-19.09-50.63-116.32-112.85-100.92,0,0,81.17-14.51,84.78-14.51s167.15,288.5,167.15,288.5l-18,46.92Z"/>
  <path class="cls-1" d="M354.64,36.55s288.14-69.28,691.05.81l-92.81,182.65-543.04.51-55.2-183.97Z"/>
  <path class="cls-5" d="M60.45,862.22l27.24,31.7s26.92,11.55,46.77,15.14c19.85,3.59,57.74,5.36,57.74,5.36,0,0,9.01-11.74,35.11-76.71,26.1-64.97,61.19-164.23,101.73-213.89,0,0,40.74-50,71.23-37.95,23.91,9.45,73.54,22.93,138.92,3.48l313.47.61s55.05,24.75,123.58-2.37c29.3-11.6,79.84,7.59,115.09,80.63,35.25,73.03,76.84,173.12,84.07,192.06,7.23,18.94,24.4,51.39,24.4,51.39l75.76-13.6,45.97-33.42-40.87-293.13-72.34-190.27-255.45-172.5-527.71.5-129.69,222.48-156.64,335.72-78.39,94.79Z"/>
  <path class="cls-1" d="M149.01,78.24c.97-1.77,174.96-41.66,205.63-41.69,0,0,37.88-2.74,50.56,43.25,12.67,45.99,28.99,127.16,28.99,127.16,0,0,16.31,72.15-13.42,113.67-29.73,41.52-119.84,138.13-181.04,288.83-61.2,150.7-90.87,252.66-90.87,252.66,0,0-9.9,25.27-27.93,34.3-18.03,9.04-50.52-8.97-66.79-34.22-16.26-25.24-50.61-104.59-47.99-190.29,2.63-85.7,38.41-404.16,142.87-593.69Z"/>
  <path class="cls-5" d="M174.26,72.81l1.78-25.26s37.86-28.9,91.07-38.87c53.21-9.97,92.91.81,92.91.81l5.89,28.41-191.66,34.91Z"/>
  <rect class="cls-3" x="356.11" y="86.2" width="33.26" height="61.58" rx="15.57" ry="15.57" transform="translate(-17.73 104.46) rotate(-15.59)"/>
  <path class="cls-4" d="M301.59,213.41l3.57-40.6c-.01-11.85-7.23-18.03-18.06-19.83l-38.79.04c-11.95.01-22.54,8.14-21.63,18.96l2.75,45.1,25.28,27.04s6.32,9.92,18.94-.02c12.62-9.93,27.94-30.7,27.94-30.7Z"/>
  <path class="cls-4" d="M231.43,320.69l-3.57,40.6c.01,11.85,7.23,18.03,18.06,19.83l38.79-.04c11.95-.01,22.54-8.14,21.63-18.96l-2.75-45.1-25.28-27.04s-6.32-9.92-18.94.02c-12.62,9.93-27.94,30.7-27.94,30.7Z"/>
  <path class="cls-4" d="M321.57,298.66l40.6,3.57c11.85-.01,18.03-7.23,19.83-18.06l-.04-38.79c-.01-11.95-8.14-22.54-18.96-21.63l-45.1,2.75-27.04,25.28s-9.92,6.32.02,18.94c9.93,12.62,30.7,27.94,30.7,27.94Z"/>
  <path class="cls-4" d="M214.3,228.51l-40.6-3.57c-11.85.01-18.03,7.23-19.83,18.06l.04,38.79c.01,11.95,8.14,22.54,18.96,21.63l45.1-2.75,27.04-25.28s9.92-6.32-.02-18.94c-9.93-12.62-30.7-27.94-30.7-27.94Z"/>
  <g>
    <circle class="cls-2" cx="641.34" cy="351.55" r="8.57"/>
    <circle class="cls-2" cx="666.6" cy="351.53" r="8.57"/>
    <circle class="cls-2" cx="691.86" cy="351.51" r="8.57"/>
    <circle class="cls-2" cx="717.12" cy="351.48" r="8.57"/>
    <circle class="cls-2" cx="742.38" cy="351.46" r="8.57"/>
    <circle class="cls-2" cx="654.9" cy="378.6" r="8.57"/>
    <circle class="cls-2" cx="680.16" cy="378.58" r="8.57"/>
    <circle class="cls-2" cx="705.42" cy="378.56" r="8.57"/>
    <circle class="cls-2" cx="730.67" cy="378.53" r="8.57"/>
  </g>
  <path class="cls-2" d="M718.65,536.86l-46.01.04c-4.98,0-9.02-4.03-9.03-9.01h0c0-4.98,4.03-9.02,9.01-9.03l46.01-.04c4.98,0,9.02,4.03,9.03,9.01h0c0,4.98-4.03,9.02-9.01,9.03Z"/>
  <path class="cls-5" d="M1218.4,71.82l-1.83-25.26s-37.91-28.83-91.15-38.7c-53.23-9.87-92.91.99-92.91.99l-5.84,28.42,191.72,34.55Z"/>
  <path class="cls-1" d="M1231.24,77.22c-.98-1.76-175.04-41.33-205.71-41.3,0,0-37.89-2.67-50.47,43.35-12.59,46.02-28.75,127.22-28.75,127.22,0,0-16.17,72.18,13.64,113.65,29.81,41.47,120.1,137.9,181.59,288.49,61.48,150.59,91.35,252.49,91.35,252.49,0,0,9.95,25.25,28,34.25,18.05,9,50.51-9.07,66.72-34.34,16.21-25.27,50.42-104.69,47.63-190.38-2.79-85.69-39.17-404.09-143.99-593.42Z"/>
  <path class="cls-5" d="M692.93,309.56l170.23-.16s46.43-.04,58.22-37.94c11.8-37.9,46.23-203.91,46.23-203.91,0,0,7.26-21.66-17.32-28.85-24.59-7.19-316.37-32.18-520.25.49-25.31,4.05-17.27,28.88-17.27,28.88,0,0,34.75,165.95,46.62,203.82,11.87,37.88,58.3,37.83,58.3,37.83l170.23-.16h5.01Z"/>
  <rect class="cls-6" x="996.57" y="85.6" width="33.26" height="61.58" rx="15.57" ry="15.57" transform="translate(1958.59 498.98) rotate(-164.52)"/>
  <circle class="cls-4" cx="1018.77" cy="262.35" r="46.01"/>
  <circle class="cls-4" cx="1220.84" cy="262.15" r="46.01"/>
  <circle class="cls-4" cx="1117.91" cy="163.93" r="46.01"/>
  <circle class="cls-4" cx="1118.1" cy="364.18" r="46.01"/>
</svg>