<?xml version="1.0" encoding="UTF-8"?>
<svg id="Layer_1" data-name="Layer 1" xmlns="http://www.w3.org/2000/svg" viewBox="0 0 444.85 985.89">
  <defs>
    <style>
      .cls-1 {
        fill: none;
        stroke: #eaeaea;
        stroke-miterlimit: 10;
        stroke-width: 3px;
      }

      .cls-2 {
        opacity: .54;
      }
    </style>
  </defs>
  <g id="ps5" class="cls-2">
    <path class="cls-1" d="M87.59,65.75h266.47s8.64,25.26,9.28,75.13c.28,22.08-5.05,104.64-11.09,189.79-7.59,107.16-16.29,218.42-16.29,218.42l-21.65,396.24h-185.43l-28.54-476.69s-19.11-305.16-18.47-345.72c.64-40.56,5.73-57.18,5.73-57.18Z"/>
    <path class="cls-1" d="M82.34,101.42C41.7,74.35,15.48,27.77,5.09,6.63c-.97-1.97-3.84-1.05-3.57,1.16,6.03,49.52,29.33,243.59,50.73,461.86,24.84,253.3,45.22,491.32,45.22,491.32"/>
    <path class="cls-1" d="M364.06,101.25c42.55-29.11,68.87-80.76,77.25-99.11.52-1.15,2.19-.64,2.04.62-4.79,40.2-28.37,240.46-49.98,466.71-24.19,253.3-44.03,491.32-44.03,491.32"/>
    <path class="cls-1" d="M2.57,16.22s23.25,276.23,39.97,482.5c16.71,206.27,16.73,487.16,16.73,487.16"/>
    <path class="cls-1" d="M441.67,5.85s-21.68,276.23-37.26,482.5c-15.58,206.27-15.6,487.16-15.6,487.16"/>
    <line class="cls-1" x1="363.35" y1="110.89" x2="396.78" y2="124.6"/>
    <line class="cls-1" x1="363.35" y1="117.75" x2="403.14" y2="141.21"/>
    <line class="cls-1" x1="364.93" y1="133.89" x2="406.97" y2="165.81"/>
    <line class="cls-1" x1="364.93" y1="163.7" x2="405.05" y2="196.39"/>
    <line class="cls-1" x1="363.35" y1="192.92" x2="403.14" y2="232.42"/>
    <line class="cls-1" x1="360.48" y1="239.6" x2="400.6" y2="277.5"/>
    <line class="cls-1" x1="357.93" y1="282.82" x2="398.69" y2="324.7"/>
    <line class="cls-1" x1="393.59" y1="379.88" x2="352.25" y2="330.67"/>
    <line class="cls-1" x1="388.82" y1="445.18" x2="349.33" y2="400.73"/>
    <line class="cls-1" x1="381.49" y1="512.85" x2="345.19" y2="466.98"/>
    <line class="cls-1" x1="375.76" y1="588.64" x2="336.29" y2="544.82"/>
    <line class="cls-1" x1="369.39" y1="669.09" x2="334.37" y2="625.87"/>
    <line class="cls-1" x1="363.35" y1="746.75" x2="329.35" y2="704.71"/>
    <line class="cls-1" x1="355.38" y1="827.32" x2="322.9" y2="787.97"/>
    <line class="cls-1" x1="349.33" y1="915.31" x2="318.06" y2="876.62"/>
    <line class="cls-1" x1="81.17" y1="107.54" x2="48.02" y2="121.76"/>
    <line class="cls-1" x1="81.17" y1="114.65" x2="41.71" y2="138.96"/>
    <line class="cls-1" x1="79.6" y1="131.38" x2="37.92" y2="164.45"/>
    <line class="cls-1" x1="79.6" y1="162.27" x2="39.81" y2="196.14"/>
    <line class="cls-1" x1="81.17" y1="192.54" x2="41.71" y2="233.48"/>
    <line class="cls-1" x1="84.02" y1="240.92" x2="44.23" y2="280.19"/>
    <line class="cls-1" x1="86.54" y1="285.7" x2="46.13" y2="329.1"/>
    <line class="cls-1" x1="51.18" y1="386.28" x2="92.17" y2="335.28"/>
    <line class="cls-1" x1="55.92" y1="453.94" x2="95.07" y2="407.89"/>
    <line class="cls-1" x1="63.18" y1="524.07" x2="99.18" y2="476.53"/>
    <line class="cls-1" x1="68.86" y1="602.6" x2="108" y2="557.19"/>
    <line class="cls-1" x1="75.18" y1="685.96" x2="109.91" y2="641.18"/>
    <line class="cls-1" x1="81.17" y1="766.44" x2="114.89" y2="722.87"/>
    <line class="cls-1" x1="89.07" y1="849.92" x2="121.28" y2="809.14"/>
    <line class="cls-1" x1="95.07" y1="941.1" x2="126.08" y2="901"/>
  </g>
</svg>