<?xml version="1.0" encoding="UTF-8"?>
<svg id="Layer_1" data-name="Layer 1" xmlns="http://www.w3.org/2000/svg" viewBox="0 0 1038.57 2312.05">
  <defs>
    <style>
      .cls-1 {
        fill: none;
        stroke: #777;
        stroke-miterlimit: 10;
      }
    </style>
  </defs>
  <g id="ps5">
    <path class="cls-1" d="M202.66,151.37h625.73s20.29,59.33,21.79,176.41c.66,51.85-11.87,245.72-26.04,445.67-17.83,251.63-38.26,512.89-38.26,512.89l-50.84,930.47h-435.44l-67.03-1119.37s-44.86-716.58-43.37-811.82c1.5-95.23,13.46-134.26,13.46-134.26Z"/>
    <path class="cls-1" d="M190.32,235.14C94.9,171.57,33.32,62.19,8.93,12.54,6.65,7.9-.09,10.08.54,15.25c14.17,116.28,68.87,572.01,119.12,1084.54,58.32,594.81,106.18,1153.72,106.18,1153.72"/>
    <path class="cls-1" d="M851.87,234.75c99.91-68.35,161.71-189.63,181.39-232.74,1.23-2.7,5.14-1.51,4.78,1.46-11.25,94.39-66.63,564.64-117.36,1095.93-56.8,594.81-103.4,1153.72-103.4,1153.72"/>
    <path class="cls-1" d="M3.02,35.06s54.6,648.66,93.85,1133.02c39.25,484.37,39.29,1143.97,39.29,1143.97"/>
    <path class="cls-1" d="M1034.12,10.72s-50.9,648.66-87.49,1133.02c-36.59,484.37-36.63,1143.97-36.63,1143.97"/>
    <line class="cls-1" x1="850.21" y1="257.36" x2="928.69" y2="289.57"/>
    <line class="cls-1" x1="850.21" y1="273.47" x2="943.65" y2="328.56"/>
    <line class="cls-1" x1="853.92" y1="311.39" x2="952.62" y2="386.33"/>
    <line class="cls-1" x1="853.92" y1="381.37" x2="948.13" y2="458.14"/>
    <line class="cls-1" x1="850.21" y1="449.98" x2="943.65" y2="542.75"/>
    <line class="cls-1" x1="843.45" y1="559.62" x2="937.67" y2="648.61"/>
    <line class="cls-1" x1="837.47" y1="661.1" x2="933.18" y2="759.45"/>
    <line class="cls-1" x1="921.22" y1="889.03" x2="824.14" y2="773.46"/>
    <line class="cls-1" x1="910" y1="1042.35" x2="817.28" y2="937.99"/>
    <line class="cls-1" x1="892.8" y1="1201.27" x2="807.56" y2="1093.54"/>
    <line class="cls-1" x1="879.34" y1="1379.24" x2="786.66" y2="1276.33"/>
    <line class="cls-1" x1="864.39" y1="1568.14" x2="782.14" y2="1466.67"/>
    <line class="cls-1" x1="850.21" y1="1750.52" x2="770.35" y2="1651.79"/>
    <line class="cls-1" x1="831.49" y1="1939.71" x2="755.23" y2="1847.29"/>
    <line class="cls-1" x1="817.28" y1="2146.33" x2="743.85" y2="2055.46"/>
    <line class="cls-1" x1="187.57" y1="249.51" x2="109.74" y2="282.89"/>
    <line class="cls-1" x1="187.57" y1="266.2" x2="94.91" y2="323.29"/>
    <line class="cls-1" x1="183.89" y1="305.49" x2="86.01" y2="383.15"/>
    <line class="cls-1" x1="183.89" y1="378.01" x2="90.46" y2="457.56"/>
    <line class="cls-1" x1="187.57" y1="449.11" x2="94.91" y2="545.24"/>
    <line class="cls-1" x1="194.27" y1="562.71" x2="100.84" y2="654.92"/>
    <line class="cls-1" x1="200.2" y1="667.87" x2="105.29" y2="769.78"/>
    <line class="cls-1" x1="117.16" y1="904.05" x2="213.42" y2="784.3"/>
    <line class="cls-1" x1="128.28" y1="1062.93" x2="220.22" y2="954.78"/>
    <line class="cls-1" x1="145.33" y1="1227.6" x2="229.86" y2="1115.98"/>
    <line class="cls-1" x1="158.68" y1="1412.02" x2="250.59" y2="1305.39"/>
    <line class="cls-1" x1="173.51" y1="1607.77" x2="255.07" y2="1502.61"/>
    <line class="cls-1" x1="187.57" y1="1796.74" x2="266.76" y2="1694.44"/>
    <line class="cls-1" x1="206.14" y1="1992.79" x2="281.76" y2="1897.02"/>
    <line class="cls-1" x1="220.22" y1="2206.89" x2="293.04" y2="2112.73"/>
  </g>
</svg>