<?xml version="1.0" encoding="UTF-8"?>
<svg id="Layer_1" data-name="Layer 1" xmlns="http://www.w3.org/2000/svg" viewBox="0 0 444.89 343.3">
  <defs>
    <style>
      .cls-1 {
        fill: #eaeaea;
        stroke-width: 0px;
      }
    </style>
  </defs>
  <path class="cls-1" d="M440.95,262.83c-8.73,10.97-29.97,18.77-29.97,18.77l-158.41,56.84v-41.94l116.55-41.55c13.21-4.71,15.29-11.43,4.48-14.98-10.74-3.55-30.2-2.55-43.41,2.24l-77.62,27.42v-43.56c17.92-6.02,36.38-10.5,58.47-12.98,31.59-3.48,70.21.46,100.56,11.97,34.14,10.81,38,26.8,29.35,37.77h0ZM267.64,191.39v-107.35c0-12.59-2.32-24.17-14.13-27.5-9.04-2.93-14.67,5.48-14.67,18.07v268.7l-72.45-23.02V0c30.82,5.72,75.69,19.23,99.79,27.34,61.4,21.08,82.18,47.34,82.18,106.43s-35.53,79.4-80.71,57.62h0ZM33.39,292.1c-35.06-9.89-40.93-30.51-24.95-42.32,14.75-10.97,39.93-19.23,39.93-19.23l103.88-36.92v42.09l-74.76,26.72c-13.21,4.71-15.22,11.43-4.48,14.98,10.74,3.55,30.2,2.55,43.41-2.24l35.84-13.05v37.69c-39.85,7.18-78.32,5.64-118.86-7.72h0Z"/>
</svg>