<?xml version="1.0" encoding="UTF-8"?>
<svg id="Layer_1" data-name="Layer 1" xmlns="http://www.w3.org/2000/svg" viewBox="0 0 1536.2 475.22">
  <defs>
    <style>
      .cls-1 {
        fill: #282828;
      }

      .cls-1, .cls-2, .cls-3 {
        stroke-width: 0px;
      }

      .cls-4 {
        font-size: 173.69px;
      }

      .cls-4, .cls-5 {
        font-family: EthnocentricRg-Regular, Ethnocentric;
      }

      .cls-4, .cls-3 {
        fill: #fff;
      }

      .cls-5 {
        fill: #efefef;
        font-size: 275.9px;
      }

      .cls-2 {
        fill: #ed3331;
      }
    </style>
  </defs>
  <g>
    <rect class="cls-1" x="8.02" width="364.06" height="440.86" rx="33.48" ry="33.48"/>
    <g>
      <g>
        <rect class="cls-3" x="123.6" y="356.1" width="49.84" height="49.84" rx="24.92" ry="24.92" transform="translate(-232.65 529.13) rotate(-89.94)"/>
        <path class="cls-2" d="M421.24.16H127.15l-.35,321.39,43.68,31.54c15.89,11.48,19.48,33.66,8,49.56h0c-11.48,15.89-33.66,19.48-49.56,8l-51.67-37.3c-3.2-2.31-5.88-5.07-8.05-8.11-8.18-6.51-13.42-16.55-13.41-27.82L56.16.16h-22.6C15.02.16,0,15.18,0,33.72v387.68c0,18.53,15.02,33.56,33.56,33.56h387.68c18.53,0,33.56-15.02,33.56-33.56V33.72c0-18.53-15.02-33.56-33.56-33.56Z"/>
      </g>
      <text class="cls-5" transform="translate(139.4 258.18)"><tspan x="0" y="0">R</tspan></text>
    </g>
  </g>
  <g>
    <path class="cls-3" d="M633.3,180.59l-24.09,31.15h-116.62v-121.15h140.35l-24.27,31.51h-78.41v14.49h95.98l-21.55,27.53h-74.43v16.48h103.04Z"/>
    <path class="cls-3" d="M758.43,138.94c29.52,0,45.45,11.05,45.45,33.14,0,24.81-15.03,39.66-51.97,39.66h-112.82l24.08-31.15h91.63c8.87,0,12.86-2.54,12.86-8.87s-3.98-8.69-12.86-8.69h-65.92c-31.15,0-45.45-13.94-45.45-34.77,0-22.82,15.21-37.67,51.97-37.67h105.21l-24.08,31.51h-84.03c-8.69,0-12.86,2.17-12.86,8.33s4.17,8.51,12.86,8.51h65.92Z"/>
    <path class="cls-3" d="M920.87,180.77h-63.38v30.97h-37.3v-61.93h104.31c11.59,0,18.29-5.61,18.29-13.94s-6.7-13.76-18.29-13.76h-104.31l24.81-31.51h76.06c37.49,0,59.4,18.47,59.4,45.45s-21.91,44.73-59.58,44.73Z"/>
    <path class="cls-3" d="M1022.09,211.74l22.64-31.15h30.42c7.24,0,15.75,0,21.55.36-3.26-4.35-8.33-11.77-12.31-17.57l-21.73-32.05-56.86,80.4h-44.37l77.69-109.56c5.07-7.06,12.5-13.58,24.27-13.58s18.65,5.98,23.9,13.58l75.7,109.56h-140.89Z"/>
    <path class="cls-3" d="M1279.96,166.65c-10.5-18.65-15.39-27.71-19.56-36.4-3.8,8.69-8.69,17.57-19.2,36.22l-19.38,34.41c-4.35,7.79-10.87,12.86-20.64,12.86s-17.75-5.43-21.01-16.66l-30.79-106.48h37.49l11.41,42.19c3.8,13.58,6.34,23.54,8.15,33.32,3.98-8.51,8.69-17.75,17.02-33.5l16.3-30.42c6.34-11.95,12.5-13.58,21.37-13.58s15.39,1.63,21.73,13.58l16.12,30.6c9.05,16.66,13.22,25.17,17.02,33.32,1.99-9.6,4.71-19.92,8.33-33.32l11.41-42.19h36.58l-31.33,106.48c-3.26,11.23-11.59,16.66-21.01,16.66s-16.12-4.89-20.64-12.86l-19.38-34.23Z"/>
    <path class="cls-3" d="M1489.84,207.21l-74.25-66.64v71.17h-34.05v-100.51c0-16.12,9.78-22.64,20.46-22.64,4.53,0,9.05,1.09,15.03,6.52l74.25,66.64v-71.17h34.23v100.33c0,16.12-9.78,22.82-20.64,22.82-4.71,0-9.24-1.09-15.03-6.52Z"/>
  </g>
  <text class="cls-4" transform="translate(478.47 362.8) scale(1.05 1)"><tspan x="0" y="0">GAMING</tspan></text>
</svg>