<?xml version="1.0" encoding="UTF-8"?>
<svg id="Layer_1" data-name="Layer 1" xmlns="http://www.w3.org/2000/svg" xmlns:xlink="http://www.w3.org/1999/xlink" viewBox="0 0 687.46 204">
  <defs>
    <style>
      .cls-1 {
        fill: #282828;
      }

      .cls-1, .cls-2, .cls-3, .cls-4 {
        stroke-width: 0px;
      }

      .cls-2 {
        fill: #f46a25;
      }

      .cls-3 {
        fill: #2b2b2b;
      }

      .cls-4 {
        fill: #fff;
      }

      .cls-5 {
        filter: url(#outer-glow-3);
      }

      .cls-6 {
        filter: url(#outer-glow-1);
      }
    </style>
    <filter id="outer-glow-1" filterUnits="userSpaceOnUse">
      <feOffset dx="0" dy="0"/>
      <feGaussianBlur result="blur" stdDeviation="20"/>
      <feFlood flood-color="#ed5520" flood-opacity=".73"/>
      <feComposite in2="blur" operator="in"/>
      <feComposite in="SourceGraphic"/>
    </filter>
    <filter id="outer-glow-3" filterUnits="userSpaceOnUse">
      <feOffset dx="0" dy="0"/>
      <feGaussianBlur result="blur-2" stdDeviation="8"/>
      <feFlood flood-color="#231f20" flood-opacity=".28"/>
      <feComposite in2="blur-2" operator="in"/>
      <feComposite in="SourceGraphic"/>
    </filter>
  </defs>
  <g>
    <rect class="cls-1" x="0" y=".29" width="152.79" height="185.02" rx="21.02" ry="21.02"/>
    <g class="cls-6">
      <g>
        <rect class="cls-4" x="51.87" y="150.16" width="20.92" height="20.92" rx="10.46" ry="10.46" transform="translate(-98.35 222.77) rotate(-89.94)"/>
        <path class="cls-2" d="M176.78.78H53.36l-.15,134.88,18.33,13.24c6.67,4.82,8.17,14.13,3.36,20.8h0c-4.82,6.67-14.13,8.17-20.8,3.36l-21.68-15.66c-1.34-.97-2.47-2.13-3.38-3.4-3.43-2.73-5.63-6.95-5.63-11.67L23.57.78h-9.49C6.31.78,0,7.09,0,14.86v162.7c0,7.78,6.31,14.08,14.08,14.08h162.7c7.78,0,14.08-6.31,14.08-14.08V14.86c0-7.78-6.31-14.08-14.08-14.08Z"/>
      </g>
      <path class="cls-3" d="M175.68,109.07h-32.07l-17.25-20.49h-36.82v20.49h-23.97v-39.6h67.39c7.41,0,13.2-3.36,13.2-8.68,0-6.02-4.98-9.03-13.2-9.03h-67.39l15.63-20.15h49.79c17.6,0,39.83,5.56,39.83,27.67,0,12.04-7.53,22-20.26,24.55,2.66,1.97,5.56,4.75,10.88,10.19l14.24,15.05Z"/>
    </g>
  </g>
  <g class="cls-5">
    <path class="cls-3" d="M275.2,69.02l-10.34,11.65h-50.06v-45.31h60.24l-10.42,11.79h-33.66v5.42h41.2l-9.25,10.29h-31.95v6.16h44.23Z"/>
    <path class="cls-3" d="M328.91,53.45c12.67,0,19.51,4.13,19.51,12.39,0,9.28-6.45,14.83-22.31,14.83h-48.42l10.34-11.65h39.33c3.81,0,5.52-.95,5.52-3.32s-1.71-3.25-5.52-3.25h-28.29c-13.37,0-19.51-5.21-19.51-13,0-8.53,6.53-14.09,22.31-14.09h45.16l-10.34,11.79h-36.07c-3.73,0-5.52.81-5.52,3.12s1.79,3.18,5.52,3.18h28.29Z"/>
    <path class="cls-3" d="M398.62,69.09h-27.21v11.58h-16.01v-23.17h44.77c4.97,0,7.85-2.1,7.85-5.22s-2.88-5.15-7.85-5.15h-44.77l10.65-11.79h32.65c16.09,0,25.49,6.91,25.49,17s-9.4,16.73-25.57,16.73Z"/>
    <path class="cls-3" d="M442.07,80.67l9.72-11.65h13.06c3.11,0,6.76,0,9.25.14-1.4-1.63-3.58-4.4-5.29-6.57l-9.33-11.99-24.41,30.07h-19.04l33.34-40.98c2.18-2.64,5.36-5.08,10.42-5.08s8.01,2.23,10.26,5.08l32.49,40.98h-60.47Z"/>
    <path class="cls-3" d="M552.75,63.81c-4.51-6.98-6.61-10.36-8.39-13.62-1.63,3.25-3.73,6.57-8.24,13.55l-8.32,12.87c-1.87,2.91-4.66,4.81-8.86,4.81s-7.62-2.03-9.02-6.23l-13.21-39.83h16.09l4.9,15.78c1.63,5.08,2.72,8.81,3.5,12.46,1.71-3.18,3.73-6.64,7.31-12.53l7-11.38c2.72-4.47,5.36-5.08,9.17-5.08s6.61.61,9.33,5.08l6.92,11.45c3.89,6.23,5.67,9.42,7.31,12.46.86-3.59,2.02-7.45,3.58-12.46l4.9-15.78h15.7l-13.45,39.83c-1.4,4.2-4.97,6.23-9.02,6.23s-6.92-1.83-8.86-4.81l-8.32-12.8Z"/>
    <path class="cls-3" d="M642.83,78.98l-31.87-24.93v26.62h-14.61v-37.59c0-6.03,4.2-8.47,8.78-8.47,1.94,0,3.89.41,6.45,2.44l31.87,24.93v-26.62h14.69v37.52c0,6.03-4.2,8.53-8.86,8.53-2.02,0-3.96-.41-6.45-2.44Z"/>
  </g>
  <g>
    <path class="cls-3" d="M247.56,108.86h34.9v28.31h-37.43c-18.92,0-32.86-9.96-32.86-23.1s13.94-22.22,32.86-22.22h39.06l-10.93,11.79h-28.13c-9.13,0-16.06,4.61-16.06,11.04s6.69,10.84,16.06,10.84h20.63v-6.57h-28.21l10.11-10.09Z"/>
    <path class="cls-3" d="M315.24,137.17l10.19-11.65h13.7c3.26,0,7.09,0,9.7.14-1.47-1.63-3.75-4.4-5.54-6.57l-9.79-11.99-25.6,30.07h-19.98l34.98-40.98c2.28-2.64,5.63-5.08,10.93-5.08s8.4,2.23,10.76,5.08l34.08,40.98h-63.44Z"/>
    <path class="cls-3" d="M422.39,108.73c4.81,6.98,6.93,10.36,8.81,13.55,1.79-3.18,3.91-6.5,8.73-13.48l8.73-12.87c1.96-2.91,4.89-4.81,9.3-4.81s7.99,2.03,9.46,6.23l13.78,39.83h-16.8l-5.14-15.78c-1.71-5.15-2.85-8.8-3.75-12.46-1.79,3.18-3.83,6.64-7.58,12.53l-7.34,11.38c-2.85,4.47-5.63,5.08-9.7,5.08s-6.85-.61-9.7-5.08l-7.34-11.45c-4-6.23-5.95-9.42-7.67-12.46-.82,3.59-2.04,7.38-3.67,12.46l-5.14,15.78h-16.55l14.11-39.83c1.47-4.2,5.3-6.23,9.54-6.23s7.26,1.83,9.21,4.81l8.73,12.8Z"/>
    <path class="cls-3" d="M504.5,137.17h-16.88v-45.31h16.88v45.31Z"/>
    <path class="cls-3" d="M563.53,135.48l-33.43-24.93v26.62h-15.33v-37.59c0-6.03,4.4-8.47,9.21-8.47,2.04,0,4.08.41,6.77,2.44l33.43,24.93v-26.62h15.41v37.52c0,6.03-4.4,8.53-9.3,8.53-2.12,0-4.16-.41-6.77-2.44Z"/>
    <path class="cls-3" d="M623.22,108.86h34.9v28.31h-37.43c-18.92,0-32.86-9.96-32.86-23.1s13.94-22.22,32.86-22.22h39.06l-10.93,11.79h-28.13c-9.13,0-16.06,4.61-16.06,11.04s6.69,10.84,16.06,10.84h20.63v-6.57h-28.21l10.11-10.09Z"/>
  </g>
</svg>