<?xml version="1.0" encoding="UTF-8"?>
<svg id="Layer_1" data-name="Layer 1" xmlns="http://www.w3.org/2000/svg" viewBox="0 0 1722.6 93.71">
  <defs>
    <style>
      .cls-1 {
        fill: #e82e25;
        stroke-width: 0px;
      }
    </style>
  </defs>
  <path class="cls-1" d="M128.97,92.22h-37.57l-20.21-24H28.07v24H0v-46.38h78.93c8.68,0,15.46-3.93,15.46-10.17,0-7.05-5.83-10.58-15.46-10.58H0L18.31,1.49h58.32c20.61,0,46.65,6.51,46.65,32.41,0,14.1-8.82,25.77-23.73,28.75,3.12,2.31,6.51,5.56,12.75,11.93l16.68,17.63Z"/>
  <path class="cls-1" d="M244.38,68.9l-18.04,23.33h-87.34V1.49h105.11l-18.17,23.6h-58.72v10.85h71.88l-16.14,20.61h-55.74v12.34h77.17Z"/>
  <path class="cls-1" d="M338.09,37.7c22.11,0,34.04,8.27,34.04,24.82,0,18.58-11.26,29.7-38.92,29.7h-84.49l18.04-23.33h68.62c6.65,0,9.63-1.9,9.63-6.65s-2.98-6.51-9.63-6.51h-49.37c-23.33,0-34.04-10.44-34.04-26.04,0-17.09,11.39-28.21,38.92-28.21h78.8l-18.04,23.6h-62.93c-6.51,0-9.63,1.63-9.63,6.24s3.12,6.37,9.63,6.37h49.37Z"/>
  <path class="cls-1" d="M459.74,69.03h-47.47v23.19h-27.94v-46.38h78.12c8.68,0,13.7-4.2,13.7-10.44s-5.02-10.31-13.7-10.31h-78.12l18.58-23.6h56.96c28.07,0,44.48,13.83,44.48,34.04s-16.41,33.5-44.62,33.5Z"/>
  <path class="cls-1" d="M535.55,92.22l16.95-23.33h22.78c5.42,0,11.8,0,16.14.27-2.44-3.25-6.24-8.81-9.22-13.15l-16.27-24-42.58,60.22h-33.23l58.18-82.05c3.8-5.29,9.36-10.17,18.17-10.17s13.97,4.48,17.9,10.17l56.69,82.05h-105.51Z"/>
  <path class="cls-1" d="M728.67,58.45c-7.87-13.97-11.53-20.75-14.65-27.26-2.85,6.51-6.51,13.16-14.38,27.12l-14.51,25.77c-3.25,5.83-8.14,9.63-15.46,9.63s-13.29-4.07-15.73-12.48L630.89,1.49h28.07l8.54,31.6c2.85,10.17,4.75,17.63,6.1,24.95,2.98-6.37,6.51-13.29,12.75-25.09l12.21-22.78c4.75-8.95,9.36-10.17,16-10.17s11.53,1.22,16.27,10.17l12.07,22.92c6.78,12.48,9.9,18.85,12.75,24.95,1.49-7.19,3.53-14.92,6.24-24.95l8.54-31.6h27.4l-23.46,79.74c-2.44,8.41-8.68,12.48-15.73,12.48s-12.07-3.66-15.46-9.63l-14.51-25.63Z"/>
  <path class="cls-1" d="M885.85,88.83l-55.6-49.91v53.3h-25.5V16.95c0-12.07,7.32-16.95,15.32-16.95,3.39,0,6.78.81,11.26,4.88l55.6,49.91V1.49h25.63v75.13c0,12.07-7.32,17.09-15.46,17.09-3.53,0-6.92-.81-11.26-4.88Z"/>
  <path class="cls-1" d="M1037.06,35.53h58.05v56.69h-62.25c-31.46,0-54.65-19.94-54.65-46.25s23.19-44.48,54.65-44.48h64.96l-18.17,23.6h-46.79c-15.19,0-26.72,9.22-26.72,22.11s11.12,21.7,26.72,21.7h34.31v-13.16h-46.92l16.82-20.21Z"/>
  <path class="cls-1" d="M1149.62,92.22l16.95-23.33h22.78c5.42,0,11.8,0,16.14.27-2.44-3.25-6.24-8.81-9.22-13.15l-16.27-24-42.58,60.22h-33.23l58.18-82.05c3.8-5.29,9.36-10.17,18.17-10.17s13.97,4.48,17.9,10.17l56.69,82.05h-105.51Z"/>
  <path class="cls-1" d="M1327.82,35.26c8,13.97,11.53,20.75,14.65,27.12,2.98-6.37,6.51-13.02,14.51-26.99l14.51-25.77c3.25-5.83,8.14-9.63,15.46-9.63s13.29,4.07,15.73,12.48l22.92,79.74h-27.94l-8.54-31.6c-2.85-10.31-4.75-17.63-6.24-24.95-2.98,6.37-6.38,13.29-12.61,25.09l-12.21,22.78c-4.75,8.95-9.36,10.17-16.14,10.17s-11.39-1.22-16.14-10.17l-12.21-22.92c-6.64-12.48-9.9-18.85-12.75-24.95-1.36,7.19-3.39,14.78-6.1,24.95l-8.54,31.6h-27.53l23.46-79.74c2.44-8.41,8.81-12.48,15.87-12.48s12.07,3.66,15.33,9.63l14.51,25.63Z"/>
  <path class="cls-1" d="M1464.39,92.22h-28.07V1.49h28.07v90.73Z"/>
  <path class="cls-1" d="M1562.58,88.83l-55.6-49.91v53.3h-25.5V16.95c0-12.07,7.32-16.95,15.33-16.95,3.39,0,6.78.81,11.26,4.88l55.6,49.91V1.49h25.63v75.13c0,12.07-7.32,17.09-15.46,17.09-3.53,0-6.92-.81-11.26-4.88Z"/>
  <path class="cls-1" d="M1661.85,35.53h58.04v56.69h-62.25c-31.46,0-54.65-19.94-54.65-46.25s23.19-44.48,54.65-44.48h64.96l-18.17,23.6h-46.79c-15.19,0-26.72,9.22-26.72,22.11s11.12,21.7,26.72,21.7h34.31v-13.16h-46.92l16.82-20.21Z"/>
</svg>