<?xml version="1.0" encoding="UTF-8"?>
<svg id="Layer_1" data-name="Layer 1" xmlns="http://www.w3.org/2000/svg" viewBox="0 0 353.57 353.57">
  <defs>
    <style>
      .cls-1 {
        fill: #ed3331;
      }

      .cls-1, .cls-2, .cls-3 {
        stroke-width: 0px;
      }

      .cls-2 {
        fill: #fff;
      }

      .cls-3 {
        fill: #efefef;
      }
    </style>
  </defs>
  <g>
    <rect class="cls-2" x="96.09" y="276.72" width="38.75" height="38.75" rx="19.37" ry="19.37" transform="translate(-180.75 411.23) rotate(-89.94)"/>
    <path class="cls-1" d="M327.48,0H98.85l-.27,249.86,33.96,24.52c12.36,8.92,15.14,26.17,6.22,38.53h0c-8.92,12.36-26.17,15.14-38.53,6.22l-40.17-29c-2.49-1.8-4.57-3.94-6.26-6.31-6.36-5.06-10.44-12.87-10.43-21.63L43.66,0h-17.57C11.68,0,0,11.68,0,26.09v301.4c0,14.41,11.68,26.09,26.09,26.09h301.4c14.41,0,26.09-11.68,26.09-26.09V26.09c0-14.41-11.68-26.09-26.09-26.09Z"/>
  </g>
  <path class="cls-3" d="M325.45,200.59h-59.41l-31.96-37.97h-68.21v37.97h-44.4v-73.36h124.83c13.73,0,24.45-6.22,24.45-16.09,0-11.15-9.22-16.73-24.45-16.73h-124.83l28.96-37.32h92.23c32.6,0,73.79,10.3,73.79,51.26,0,22.31-13.94,40.75-37.54,45.47,4.93,3.65,10.3,8.79,20.16,18.88l26.38,27.88Z"/>
</svg>