<?xml version="1.0" encoding="UTF-8"?>
<svg id="Layer_1" data-name="Layer 1" xmlns="http://www.w3.org/2000/svg" viewBox="0 0 85.14 85.14">
  <defs>
    <style>
      .cls-1 {
        fill: #2b2b2b;
        stroke-width: 0px;
      }
    </style>
  </defs>
  <polygon class="cls-1" points="36.64 50.56 50.44 42.64 36.64 34.72 36.64 50.56"/>
  <path class="cls-1" d="M42.57,0C19.06,0,0,19.06,0,42.57s19.06,42.57,42.57,42.57,42.57-19.06,42.57-42.57S66.08,0,42.57,0ZM66.17,54.52c-.46,2.6-2.6,4.3-5.09,4.87-3.96.79-10.75,1.36-18.22,1.36s-14.26-.57-18.22-1.36c-2.49-.57-4.64-2.38-5.09-4.87-.57-2.83-1.02-6.79-1.02-11.88s.45-9.05.91-11.88c.45-2.6,2.6-4.3,5.09-4.87,3.73-.79,10.75-1.36,18.21-1.36s14.37.57,18.1,1.36c2.49.57,4.64,2.38,5.09,4.87.57,2.83,1.13,6.79,1.36,11.88-.12,4.98-.68,9.05-1.13,11.88Z"/>
</svg>